<svg width="42" height="43" viewBox="0 0 42 43" fill="none" xmlns="http://www.w3.org/2000/svg">
<path d="M34.1762 0.429688H7.76656C3.47721 0.429688 0 3.93859 0 8.26704V34.9174C0 39.2459 3.47721 42.7548 7.76656 42.7548H34.1762C38.4656 42.7548 41.9428 39.2459 41.9428 34.9174V8.26704C41.9428 3.93859 38.4656 0.429688 34.1762 0.429688Z"/>
<path d="M7.32346 16.1976H13.0167V34.69H7.32346V16.1976ZM10.1743 7.00195C12.7743 7.00195 14.672 10.039 12.582 12.7893C9.85658 14.8562 6.88037 12.9496 6.88037 10.3343C6.88037 8.49518 8.36012 7.00195 10.1826 7.00195" fill="white"/>
<path d="M16.5948 16.1978H22.0624V18.7287H22.1376C22.8984 17.2692 24.7543 15.7422 27.5299 15.7422C33.2984 15.7422 34.3601 19.5723 34.3601 24.5497V34.6902H28.6669V25.6971C28.6669 23.5542 28.6334 20.7956 25.7074 20.7956C22.7813 20.7956 22.2881 23.1324 22.2881 25.5452V34.6902H16.5948V16.1978Z" fill="white"/>
</svg>
