<svg xmlns="http://www.w3.org/2000/svg" xmlns:xlink="http://www.w3.org/1999/xlink" width="500" zoomAndPan="magnify" viewBox="0 0 375 135.000003" height="180" preserveAspectRatio="xMidYMid meet" version="1.0"><defs><g/><clipPath id="d8344083dd"><path d="M 1.378906 0 L 373.621094 0 L 373.621094 134.007812 L 1.378906 134.007812 Z M 1.378906 0 " clip-rule="nonzero"/></clipPath><clipPath id="9df9544054"><path d="M 46.207031 25 L 74.496094 25 L 74.496094 102 L 46.207031 102 Z M 46.207031 25 " clip-rule="nonzero"/></clipPath><clipPath id="3d7ed56dd3"><path d="M 300.496094 25 L 328.53125 25 L 328.53125 102 L 300.496094 102 Z M 300.496094 25 " clip-rule="nonzero"/></clipPath></defs><g clip-path="url(#d8344083dd)"><path fill="#ffffff" d="M 1.378906 0 L 373.621094 0 L 373.621094 134.007812 L 1.378906 134.007812 Z M 1.378906 0 " fill-opacity="1" fill-rule="nonzero"/><path fill="#ffffff" d="M 1.378906 0 L 373.621094 0 L 373.621094 134.007812 L 1.378906 134.007812 Z M 1.378906 0 " fill-opacity="1" fill-rule="nonzero"/></g><g fill="#333333" fill-opacity="1"><g transform="translate(133.492094, 67.47557)"><g><path d="M 1.25 0.265625 C 0.6875 0.296875 0.25 0.148438 -0.0625 -0.171875 C -0.375 -0.503906 -0.53125 -0.910156 -0.53125 -1.390625 C -0.53125 -1.742188 -0.414062 -2.070312 -0.1875 -2.375 C 0.03125 -2.675781 0.378906 -2.84375 0.859375 -2.875 L 2.25 -2.96875 C 3.769531 -3.082031 4.929688 -3.609375 5.734375 -4.546875 C 6.546875 -5.492188 6.953125 -6.789062 6.953125 -8.4375 L 6.953125 -30.0625 C 6.953125 -30.695312 7.109375 -31.171875 7.421875 -31.484375 C 7.734375 -31.796875 8.191406 -31.953125 8.796875 -31.953125 C 9.390625 -31.953125 9.84375 -31.796875 10.15625 -31.484375 C 10.476562 -31.171875 10.640625 -30.695312 10.640625 -30.0625 L 10.640625 -8.390625 C 10.640625 -6.679688 10.335938 -5.207031 9.734375 -3.96875 C 9.140625 -2.726562 8.25 -1.765625 7.0625 -1.078125 C 5.882812 -0.390625 4.441406 0.015625 2.734375 0.140625 Z M 1.25 0.265625 "/></g></g></g><g fill="#333333" fill-opacity="1"><g transform="translate(143.271946, 67.47557)"><g><path d="M 13.234375 0.40625 C 10.929688 0.40625 8.945312 -0.046875 7.28125 -0.953125 C 5.625 -1.867188 4.335938 -3.164062 3.421875 -4.84375 C 2.515625 -6.519531 2.0625 -8.523438 2.0625 -10.859375 C 2.0625 -13.128906 2.507812 -15.109375 3.40625 -16.796875 C 4.300781 -18.492188 5.535156 -19.820312 7.109375 -20.78125 C 8.679688 -21.738281 10.5 -22.21875 12.5625 -22.21875 C 14.03125 -22.21875 15.347656 -21.96875 16.515625 -21.46875 C 17.679688 -20.976562 18.675781 -20.269531 19.5 -19.34375 C 20.320312 -18.414062 20.945312 -17.289062 21.375 -15.96875 C 21.8125 -14.65625 22.03125 -13.175781 22.03125 -11.53125 C 22.03125 -11.050781 21.894531 -10.695312 21.625 -10.46875 C 21.351562 -10.25 20.96875 -10.140625 20.46875 -10.140625 L 4.84375 -10.140625 L 4.84375 -12.515625 L 19.609375 -12.515625 L 18.890625 -11.9375 C 18.890625 -13.550781 18.648438 -14.914062 18.171875 -16.03125 C 17.691406 -17.15625 16.992188 -18.015625 16.078125 -18.609375 C 15.171875 -19.210938 14.03125 -19.515625 12.65625 -19.515625 C 11.125 -19.515625 9.828125 -19.160156 8.765625 -18.453125 C 7.710938 -17.753906 6.914062 -16.785156 6.375 -15.546875 C 5.832031 -14.304688 5.5625 -12.863281 5.5625 -11.21875 L 5.5625 -10.953125 C 5.5625 -8.203125 6.226562 -6.109375 7.5625 -4.671875 C 8.894531 -3.234375 10.785156 -2.515625 13.234375 -2.515625 C 14.253906 -2.515625 15.265625 -2.648438 16.265625 -2.921875 C 17.265625 -3.191406 18.242188 -3.640625 19.203125 -4.265625 C 19.617188 -4.535156 20 -4.660156 20.34375 -4.640625 C 20.6875 -4.628906 20.960938 -4.523438 21.171875 -4.328125 C 21.390625 -4.128906 21.535156 -3.890625 21.609375 -3.609375 C 21.679688 -3.328125 21.648438 -3.019531 21.515625 -2.6875 C 21.378906 -2.363281 21.117188 -2.082031 20.734375 -1.84375 C 19.742188 -1.125 18.578125 -0.566406 17.234375 -0.171875 C 15.890625 0.210938 14.554688 0.40625 13.234375 0.40625 Z M 13.234375 0.40625 "/></g></g></g><g fill="#333333" fill-opacity="1"><g transform="translate(162.384095, 67.47557)"><g><path d="M 10.765625 0.40625 C 9.421875 0.40625 8.066406 0.242188 6.703125 -0.078125 C 5.347656 -0.410156 4.085938 -0.984375 2.921875 -1.796875 C 2.617188 -2.003906 2.40625 -2.25 2.28125 -2.53125 C 2.164062 -2.820312 2.128906 -3.109375 2.171875 -3.390625 C 2.222656 -3.671875 2.34375 -3.914062 2.53125 -4.125 C 2.726562 -4.332031 2.96875 -4.457031 3.25 -4.5 C 3.539062 -4.550781 3.863281 -4.488281 4.21875 -4.3125 C 5.382812 -3.59375 6.515625 -3.085938 7.609375 -2.796875 C 8.703125 -2.515625 9.785156 -2.375 10.859375 -2.375 C 12.566406 -2.375 13.851562 -2.6875 14.71875 -3.3125 C 15.582031 -3.945312 16.015625 -4.800781 16.015625 -5.875 C 16.015625 -6.71875 15.726562 -7.382812 15.15625 -7.875 C 14.59375 -8.363281 13.695312 -8.742188 12.46875 -9.015625 L 8.390625 -9.921875 C 6.503906 -10.304688 5.101562 -10.976562 4.1875 -11.9375 C 3.28125 -12.894531 2.828125 -14.132812 2.828125 -15.65625 C 2.828125 -17.007812 3.175781 -18.171875 3.875 -19.140625 C 4.582031 -20.109375 5.578125 -20.863281 6.859375 -21.40625 C 8.148438 -21.945312 9.648438 -22.21875 11.359375 -22.21875 C 12.671875 -22.21875 13.914062 -22.046875 15.09375 -21.703125 C 16.28125 -21.359375 17.351562 -20.8125 18.3125 -20.0625 C 18.601562 -19.851562 18.800781 -19.601562 18.90625 -19.3125 C 19.019531 -19.03125 19.035156 -18.75 18.953125 -18.46875 C 18.878906 -18.1875 18.738281 -17.945312 18.53125 -17.75 C 18.320312 -17.550781 18.066406 -17.4375 17.765625 -17.40625 C 17.472656 -17.375 17.160156 -17.46875 16.828125 -17.6875 C 15.929688 -18.28125 15.019531 -18.71875 14.09375 -19 C 13.164062 -19.289062 12.253906 -19.4375 11.359375 -19.4375 C 9.679688 -19.4375 8.40625 -19.101562 7.53125 -18.4375 C 6.664062 -17.78125 6.234375 -16.914062 6.234375 -15.84375 C 6.234375 -15 6.503906 -14.304688 7.046875 -13.765625 C 7.585938 -13.234375 8.425781 -12.847656 9.5625 -12.609375 L 13.640625 -11.75 C 15.585938 -11.332031 17.046875 -10.664062 18.015625 -9.75 C 18.984375 -8.84375 19.46875 -7.613281 19.46875 -6.0625 C 19.46875 -4.082031 18.675781 -2.507812 17.09375 -1.34375 C 15.507812 -0.175781 13.398438 0.40625 10.765625 0.40625 Z M 10.765625 0.40625 "/></g></g></g><g fill="#333333" fill-opacity="1"><g transform="translate(179.208044, 67.47557)"><g><path d="M 10.765625 0.40625 C 9.421875 0.40625 8.066406 0.242188 6.703125 -0.078125 C 5.347656 -0.410156 4.085938 -0.984375 2.921875 -1.796875 C 2.617188 -2.003906 2.40625 -2.25 2.28125 -2.53125 C 2.164062 -2.820312 2.128906 -3.109375 2.171875 -3.390625 C 2.222656 -3.671875 2.34375 -3.914062 2.53125 -4.125 C 2.726562 -4.332031 2.96875 -4.457031 3.25 -4.5 C 3.539062 -4.550781 3.863281 -4.488281 4.21875 -4.3125 C 5.382812 -3.59375 6.515625 -3.085938 7.609375 -2.796875 C 8.703125 -2.515625 9.785156 -2.375 10.859375 -2.375 C 12.566406 -2.375 13.851562 -2.6875 14.71875 -3.3125 C 15.582031 -3.945312 16.015625 -4.800781 16.015625 -5.875 C 16.015625 -6.71875 15.726562 -7.382812 15.15625 -7.875 C 14.59375 -8.363281 13.695312 -8.742188 12.46875 -9.015625 L 8.390625 -9.921875 C 6.503906 -10.304688 5.101562 -10.976562 4.1875 -11.9375 C 3.28125 -12.894531 2.828125 -14.132812 2.828125 -15.65625 C 2.828125 -17.007812 3.175781 -18.171875 3.875 -19.140625 C 4.582031 -20.109375 5.578125 -20.863281 6.859375 -21.40625 C 8.148438 -21.945312 9.648438 -22.21875 11.359375 -22.21875 C 12.671875 -22.21875 13.914062 -22.046875 15.09375 -21.703125 C 16.28125 -21.359375 17.351562 -20.8125 18.3125 -20.0625 C 18.601562 -19.851562 18.800781 -19.601562 18.90625 -19.3125 C 19.019531 -19.03125 19.035156 -18.75 18.953125 -18.46875 C 18.878906 -18.1875 18.738281 -17.945312 18.53125 -17.75 C 18.320312 -17.550781 18.066406 -17.4375 17.765625 -17.40625 C 17.472656 -17.375 17.160156 -17.46875 16.828125 -17.6875 C 15.929688 -18.28125 15.019531 -18.71875 14.09375 -19 C 13.164062 -19.289062 12.253906 -19.4375 11.359375 -19.4375 C 9.679688 -19.4375 8.40625 -19.101562 7.53125 -18.4375 C 6.664062 -17.78125 6.234375 -16.914062 6.234375 -15.84375 C 6.234375 -15 6.503906 -14.304688 7.046875 -13.765625 C 7.585938 -13.234375 8.425781 -12.847656 9.5625 -12.609375 L 13.640625 -11.75 C 15.585938 -11.332031 17.046875 -10.664062 18.015625 -9.75 C 18.984375 -8.84375 19.46875 -7.613281 19.46875 -6.0625 C 19.46875 -4.082031 18.675781 -2.507812 17.09375 -1.34375 C 15.507812 -0.175781 13.398438 0.40625 10.765625 0.40625 Z M 10.765625 0.40625 "/></g></g></g><g fill="#333333" fill-opacity="1"><g transform="translate(196.031993, 67.47557)"><g><path d="M 5.203125 0.21875 C 4.609375 0.21875 4.160156 0.046875 3.859375 -0.296875 C 3.554688 -0.640625 3.40625 -1.125 3.40625 -1.75 L 3.40625 -20.109375 C 3.40625 -20.734375 3.554688 -21.207031 3.859375 -21.53125 C 4.160156 -21.863281 4.609375 -22.03125 5.203125 -22.03125 C 5.773438 -22.03125 6.222656 -21.863281 6.546875 -21.53125 C 6.878906 -21.207031 7.046875 -20.734375 7.046875 -20.109375 L 7.046875 -1.75 C 7.046875 -1.125 6.890625 -0.640625 6.578125 -0.296875 C 6.265625 0.046875 5.804688 0.21875 5.203125 0.21875 Z M 5.203125 -27.0625 C 4.453125 -27.0625 3.867188 -27.257812 3.453125 -27.65625 C 3.035156 -28.0625 2.828125 -28.609375 2.828125 -29.296875 C 2.828125 -30.015625 3.035156 -30.5625 3.453125 -30.9375 C 3.867188 -31.3125 4.453125 -31.5 5.203125 -31.5 C 5.984375 -31.5 6.570312 -31.3125 6.96875 -30.9375 C 7.375 -30.5625 7.578125 -30.015625 7.578125 -29.296875 C 7.578125 -28.609375 7.375 -28.0625 6.96875 -27.65625 C 6.570312 -27.257812 5.984375 -27.0625 5.203125 -27.0625 Z M 5.203125 -27.0625 "/></g></g></g><g fill="#333333" fill-opacity="1"><g transform="translate(201.684104, 67.47557)"><g><path d="M 12.65625 0.40625 C 10.46875 0.40625 8.582031 -0.0703125 7 -1.03125 C 5.414062 -1.988281 4.195312 -3.328125 3.34375 -5.046875 C 2.488281 -6.765625 2.0625 -8.765625 2.0625 -11.046875 C 2.0625 -12.773438 2.300781 -14.328125 2.78125 -15.703125 C 3.257812 -17.078125 3.960938 -18.25 4.890625 -19.21875 C 5.816406 -20.195312 6.929688 -20.941406 8.234375 -21.453125 C 9.535156 -21.960938 11.007812 -22.21875 12.65625 -22.21875 C 13.726562 -22.21875 14.847656 -22.050781 16.015625 -21.71875 C 17.179688 -21.382812 18.242188 -20.816406 19.203125 -20.015625 C 19.503906 -19.804688 19.695312 -19.550781 19.78125 -19.25 C 19.875 -18.945312 19.875 -18.65625 19.78125 -18.375 C 19.695312 -18.09375 19.550781 -17.851562 19.34375 -17.65625 C 19.132812 -17.457031 18.867188 -17.34375 18.546875 -17.3125 C 18.234375 -17.289062 17.914062 -17.398438 17.59375 -17.640625 C 16.8125 -18.234375 16.015625 -18.648438 15.203125 -18.890625 C 14.398438 -19.128906 13.625 -19.25 12.875 -19.25 C 11.707031 -19.25 10.691406 -19.0625 9.828125 -18.6875 C 8.960938 -18.3125 8.226562 -17.78125 7.625 -17.09375 C 7.03125 -16.40625 6.570312 -15.550781 6.25 -14.53125 C 5.9375 -13.519531 5.78125 -12.34375 5.78125 -11 C 5.78125 -8.394531 6.394531 -6.335938 7.625 -4.828125 C 8.851562 -3.316406 10.601562 -2.5625 12.875 -2.5625 C 13.625 -2.5625 14.394531 -2.679688 15.1875 -2.921875 C 15.976562 -3.160156 16.78125 -3.578125 17.59375 -4.171875 C 17.914062 -4.410156 18.226562 -4.515625 18.53125 -4.484375 C 18.832031 -4.453125 19.085938 -4.335938 19.296875 -4.140625 C 19.503906 -3.953125 19.644531 -3.707031 19.71875 -3.40625 C 19.789062 -3.113281 19.78125 -2.820312 19.6875 -2.53125 C 19.601562 -2.25 19.410156 -2.003906 19.109375 -1.796875 C 18.160156 -1.015625 17.113281 -0.453125 15.96875 -0.109375 C 14.832031 0.234375 13.726562 0.40625 12.65625 0.40625 Z M 12.65625 0.40625 "/></g></g></g><g fill="#333333" fill-opacity="1"><g transform="translate(217.700438, 67.47557)"><g><path d="M 10.28125 0.40625 C 8.78125 0.40625 7.4375 0.113281 6.25 -0.46875 C 5.070312 -1.050781 4.140625 -1.847656 3.453125 -2.859375 C 2.765625 -3.878906 2.421875 -5.019531 2.421875 -6.28125 C 2.421875 -7.894531 2.832031 -9.164062 3.65625 -10.09375 C 4.476562 -11.019531 5.835938 -11.675781 7.734375 -12.0625 C 9.640625 -12.457031 12.238281 -12.65625 15.53125 -12.65625 L 17.546875 -12.65625 L 17.546875 -10.28125 L 15.578125 -10.28125 C 13.148438 -10.28125 11.238281 -10.164062 9.84375 -9.9375 C 8.457031 -9.71875 7.488281 -9.335938 6.9375 -8.796875 C 6.382812 -8.253906 6.109375 -7.488281 6.109375 -6.5 C 6.109375 -5.28125 6.53125 -4.28125 7.375 -3.5 C 8.226562 -2.71875 9.390625 -2.328125 10.859375 -2.328125 C 12.054688 -2.328125 13.109375 -2.609375 14.015625 -3.171875 C 14.929688 -3.742188 15.648438 -4.523438 16.171875 -5.515625 C 16.703125 -6.503906 16.96875 -7.644531 16.96875 -8.9375 L 16.96875 -14.046875 C 16.96875 -15.898438 16.59375 -17.238281 15.84375 -18.0625 C 15.09375 -18.882812 13.863281 -19.296875 12.15625 -19.296875 C 11.113281 -19.296875 10.066406 -19.160156 9.015625 -18.890625 C 7.972656 -18.617188 6.867188 -18.1875 5.703125 -17.59375 C 5.285156 -17.382812 4.925781 -17.316406 4.625 -17.390625 C 4.320312 -17.460938 4.082031 -17.617188 3.90625 -17.859375 C 3.726562 -18.097656 3.625 -18.375 3.59375 -18.6875 C 3.5625 -19 3.625 -19.304688 3.78125 -19.609375 C 3.945312 -19.910156 4.210938 -20.148438 4.578125 -20.328125 C 5.890625 -20.984375 7.1875 -21.460938 8.46875 -21.765625 C 9.757812 -22.066406 10.988281 -22.21875 12.15625 -22.21875 C 14.039062 -22.21875 15.597656 -21.910156 16.828125 -21.296875 C 18.054688 -20.679688 18.96875 -19.753906 19.5625 -18.515625 C 20.164062 -17.273438 20.46875 -15.679688 20.46875 -13.734375 L 20.46875 -1.578125 C 20.46875 -0.972656 20.320312 -0.503906 20.03125 -0.171875 C 19.75 0.148438 19.335938 0.3125 18.796875 0.3125 C 18.234375 0.3125 17.800781 0.148438 17.5 -0.171875 C 17.195312 -0.503906 17.046875 -0.972656 17.046875 -1.578125 L 17.046875 -5.078125 L 17.453125 -5.078125 C 17.210938 -3.929688 16.753906 -2.953125 16.078125 -2.140625 C 15.410156 -1.335938 14.582031 -0.710938 13.59375 -0.265625 C 12.601562 0.179688 11.5 0.40625 10.28125 0.40625 Z M 10.28125 0.40625 "/></g></g></g><g clip-path="url(#9df9544054)"><path fill="#a5c4d4" d="M 73.664062 99.265625 C 70.109375 98.839844 66.007812 100.238281 62.746094 98.269531 C 59.574219 96.363281 59.894531 91.847656 60.039062 88.660156 C 60.371094 81.464844 62.101562 72.851562 57.140625 66.722656 C 55.964844 65.273438 54.472656 64.09375 52.804688 63.355469 C 53.878906 62.785156 54.871094 62.042969 55.734375 61.183594 C 58.269531 58.671875 59.652344 55.277344 60.199219 51.789062 C 60.816406 47.855469 60.425781 43.890625 60.132812 39.945312 C 59.984375 37.914062 59.863281 35.875 59.953125 33.839844 C 60.019531 32.367188 60.191406 30.605469 61.21875 29.453125 C 62.414062 28.121094 64.445312 27.78125 66.148438 27.742188 C 68.433594 27.691406 70.691406 28.046875 72.976562 27.777344 C 73.875 27.667969 74.640625 25.445312 73.386719 25.59375 C 69.804688 26.019531 66.121094 24.832031 62.695312 26.402344 C 59.402344 27.910156 58.351562 31.460938 58.199219 34.8125 C 58.019531 38.898438 58.667969 42.960938 58.773438 47.042969 C 58.863281 50.640625 58.546875 54.480469 56.671875 57.644531 C 54.863281 60.695312 51.375 62.761719 47.792969 62.261719 C 47.015625 62.152344 46.203125 63.667969 46.582031 64.257812 C 46.601562 64.601562 46.789062 64.839844 47.230469 64.78125 C 50.46875 64.328125 53.636719 66.09375 55.632812 68.558594 C 57.941406 71.410156 58.707031 75.164062 58.832031 78.75 C 58.96875 82.753906 58.347656 86.734375 58.25 90.734375 C 58.167969 93.972656 58.222656 98.003906 61.125 100.105469 C 64.515625 102.5625 69.007812 101.027344 72.828125 101.484375 C 73.761719 101.597656 74.742188 99.394531 73.664062 99.265625 Z M 73.664062 99.265625 " fill-opacity="1" fill-rule="nonzero"/></g><g clip-path="url(#3d7ed56dd3)"><path fill="#a5c4d4" d="M 301.324219 99.265625 C 304.882812 98.839844 308.984375 100.238281 312.246094 98.269531 C 315.417969 96.363281 315.097656 91.847656 314.949219 88.660156 C 314.621094 81.464844 312.890625 72.851562 317.851562 66.722656 C 319.027344 65.273438 320.519531 64.09375 322.1875 63.355469 C 321.109375 62.785156 320.121094 62.042969 319.257812 61.183594 C 316.722656 58.671875 315.335938 55.277344 314.792969 51.789062 C 314.175781 47.855469 314.566406 43.890625 314.855469 39.945312 C 315.007812 37.914062 315.128906 35.875 315.039062 33.839844 C 314.972656 32.367188 314.800781 30.605469 313.769531 29.453125 C 312.578125 28.121094 310.542969 27.78125 308.84375 27.742188 C 306.558594 27.691406 304.300781 28.046875 302.015625 27.777344 C 301.117188 27.667969 300.351562 25.445312 301.605469 25.59375 C 305.1875 26.019531 308.871094 24.832031 312.296875 26.402344 C 315.585938 27.910156 316.640625 31.460938 316.789062 34.8125 C 316.972656 38.898438 316.324219 42.960938 316.21875 47.042969 C 316.125 50.640625 316.445312 54.480469 318.320312 57.644531 C 320.128906 60.695312 323.613281 62.761719 327.199219 62.261719 C 327.976562 62.152344 328.789062 63.667969 328.410156 64.257812 C 328.390625 64.601562 328.203125 64.839844 327.757812 64.78125 C 324.523438 64.328125 321.355469 66.09375 319.359375 68.558594 C 317.050781 71.410156 316.285156 75.164062 316.160156 78.75 C 316.019531 82.753906 316.644531 86.734375 316.742188 90.734375 C 316.824219 93.972656 316.769531 98.003906 313.867188 100.105469 C 310.472656 102.5625 305.984375 101.027344 302.164062 101.484375 C 301.226562 101.597656 300.25 99.394531 301.324219 99.265625 Z M 301.324219 99.265625 " fill-opacity="1" fill-rule="nonzero"/></g><g fill="#333333" fill-opacity="1"><g transform="translate(115.833229, 94.234743)"><g><path d="M 2.3125 0 L 2.3125 -16.25 L 3.796875 -16.25 L 3.796875 -1.359375 L 12.265625 -1.359375 L 12.265625 0 Z M 2.3125 0 "/></g></g></g><g fill="#333333" fill-opacity="1"><g transform="translate(126.150327, 94.234743)"><g><path d="M 2.3125 0 L 2.3125 -16.25 L 12.46875 -16.25 L 12.46875 -14.9375 L 3.78125 -14.9375 L 3.78125 -8.890625 L 12 -8.890625 L 12 -7.578125 L 3.78125 -7.578125 L 3.78125 -1.3125 L 12.46875 -1.3125 L 12.46875 0 Z M 2.3125 0 "/></g></g></g><g fill="#333333" fill-opacity="1"><g transform="translate(137.619039, 94.234743)"><g><path d="M 2.34375 0 L 2.34375 -16.25 L 3.875 -16.25 L 10.328125 -3.75 L 9.90625 -3.75 L 16.3125 -16.25 L 17.8125 -16.25 L 17.8125 0 L 16.40625 0 L 16.40625 -14.328125 L 16.75 -14.328125 L 10.671875 -2.53125 L 9.5625 -2.53125 L 3.40625 -14.328125 L 3.75 -14.328125 L 3.75 0 Z M 2.34375 0 "/></g></g></g><g fill="#333333" fill-opacity="1"><g transform="translate(155.329553, 94.234743)"><g><path d="M 0.78125 0 L 7.84375 -16.25 L 9.203125 -16.25 L 16.265625 0 L 14.6875 0 L 12.671875 -4.671875 L 13.5 -4.265625 L 3.53125 -4.265625 L 4.328125 -4.671875 L 2.34375 0 Z M 8.484375 -14.40625 L 4.609375 -5.28125 L 4.0625 -5.578125 L 12.953125 -5.578125 L 12.421875 -5.28125 L 8.546875 -14.40625 Z M 8.484375 -14.40625 "/></g></g></g><g fill="#333333" fill-opacity="1"><g transform="translate(169.907652, 94.234743)"><g><path d="M 2.3125 0 L 2.3125 -16.25 L 8.59375 -16.25 C 10.3125 -16.25 11.628906 -15.851562 12.546875 -15.0625 C 13.472656 -14.269531 13.9375 -13.128906 13.9375 -11.640625 C 13.9375 -10.734375 13.75 -9.953125 13.375 -9.296875 C 13 -8.640625 12.453125 -8.128906 11.734375 -7.765625 C 11.023438 -7.398438 10.171875 -7.191406 9.171875 -7.140625 L 9.328125 -7.3125 L 9.59375 -7.28125 C 10.082031 -7.25 10.507812 -7.09375 10.875 -6.8125 C 11.25 -6.53125 11.597656 -6.082031 11.921875 -5.46875 L 14.84375 0 L 13.203125 0 L 10.421875 -5.1875 C 10.171875 -5.664062 9.894531 -6.035156 9.59375 -6.296875 C 9.300781 -6.554688 8.957031 -6.734375 8.5625 -6.828125 C 8.164062 -6.929688 7.691406 -6.984375 7.140625 -6.984375 L 3.796875 -6.984375 L 3.796875 0 Z M 3.796875 -8.28125 L 8.484375 -8.28125 C 9.816406 -8.28125 10.804688 -8.554688 11.453125 -9.109375 C 12.097656 -9.671875 12.421875 -10.515625 12.421875 -11.640625 C 12.421875 -12.742188 12.09375 -13.566406 11.4375 -14.109375 C 10.789062 -14.660156 9.78125 -14.9375 8.40625 -14.9375 L 3.796875 -14.9375 Z M 3.796875 -8.28125 "/></g></g></g><g fill="#333333" fill-opacity="1"><g transform="translate(183.265038, 94.234743)"><g><path d="M 9.0625 0.203125 C 7.519531 0.203125 6.195312 -0.132812 5.09375 -0.8125 C 3.988281 -1.488281 3.132812 -2.445312 2.53125 -3.6875 C 1.9375 -4.925781 1.640625 -6.410156 1.640625 -8.140625 C 1.640625 -9.859375 1.929688 -11.332031 2.515625 -12.5625 C 3.109375 -13.800781 3.960938 -14.753906 5.078125 -15.421875 C 6.191406 -16.097656 7.519531 -16.4375 9.0625 -16.4375 C 10.195312 -16.4375 11.234375 -16.257812 12.171875 -15.90625 C 13.109375 -15.550781 13.90625 -15.019531 14.5625 -14.3125 L 13.921875 -13.109375 C 13.203125 -13.785156 12.457031 -14.273438 11.6875 -14.578125 C 10.914062 -14.890625 10.046875 -15.046875 9.078125 -15.046875 C 7.222656 -15.046875 5.785156 -14.453125 4.765625 -13.265625 C 3.742188 -12.078125 3.234375 -10.367188 3.234375 -8.140625 C 3.234375 -5.921875 3.742188 -4.207031 4.765625 -3 C 5.785156 -1.800781 7.222656 -1.203125 9.078125 -1.203125 C 10.046875 -1.203125 10.914062 -1.351562 11.6875 -1.65625 C 12.457031 -1.96875 13.203125 -2.460938 13.921875 -3.140625 L 14.5625 -1.9375 C 13.90625 -1.226562 13.109375 -0.691406 12.171875 -0.328125 C 11.234375 0.0234375 10.195312 0.203125 9.0625 0.203125 Z M 9.0625 0.203125 "/></g></g></g><g fill="#333333" fill-opacity="1"><g transform="translate(196.622423, 94.234743)"><g><path d="M 2.3125 0 L 2.3125 -16.25 L 3.796875 -16.25 L 3.796875 -8.921875 L 14.03125 -8.921875 L 14.03125 -16.25 L 15.5625 -16.25 L 15.5625 0 L 14.03125 0 L 14.03125 -7.578125 L 3.796875 -7.578125 L 3.796875 0 Z M 2.3125 0 "/></g></g></g><g fill="#333333" fill-opacity="1"><g transform="translate(212.029699, 94.234743)"><g><path d="M 0.78125 0 L 7.84375 -16.25 L 9.203125 -16.25 L 16.265625 0 L 14.6875 0 L 12.671875 -4.671875 L 13.5 -4.265625 L 3.53125 -4.265625 L 4.328125 -4.671875 L 2.34375 0 Z M 8.484375 -14.40625 L 4.609375 -5.28125 L 4.0625 -5.578125 L 12.953125 -5.578125 L 12.421875 -5.28125 L 8.546875 -14.40625 Z M 8.484375 -14.40625 "/></g></g></g><g fill="#333333" fill-opacity="1"><g transform="translate(226.607801, 94.234743)"><g><path d="M 2.3125 0 L 2.3125 -16.25 L 3.59375 -16.25 L 14.25 -2 L 13.9375 -2 L 13.9375 -16.25 L 15.34375 -16.25 L 15.34375 0 L 14.0625 0 L 3.40625 -14.25 L 3.734375 -14.25 L 3.734375 0 Z M 2.3125 0 "/></g></g></g><g fill="#333333" fill-opacity="1"><g transform="translate(241.807781, 94.234743)"><g><path d="M 2.3125 0 L 2.3125 -16.25 L 7.625 -16.25 C 9.363281 -16.25 10.832031 -15.9375 12.03125 -15.3125 C 13.226562 -14.6875 14.132812 -13.769531 14.75 -12.5625 C 15.375 -11.363281 15.6875 -9.890625 15.6875 -8.140625 C 15.6875 -6.390625 15.375 -4.910156 14.75 -3.703125 C 14.132812 -2.492188 13.222656 -1.570312 12.015625 -0.9375 C 10.804688 -0.3125 9.34375 0 7.625 0 Z M 3.796875 -1.34375 L 7.53125 -1.34375 C 9.71875 -1.34375 11.363281 -1.90625 12.46875 -3.03125 C 13.570312 -4.15625 14.125 -5.859375 14.125 -8.140625 C 14.125 -10.410156 13.570312 -12.101562 12.46875 -13.21875 C 11.363281 -14.34375 9.71875 -14.90625 7.53125 -14.90625 L 3.796875 -14.90625 Z M 3.796875 -1.34375 "/></g></g></g></svg>